<svg xmlns="http://www.w3.org/2000/svg" viewBox="0 0 30 30">
  <path d="M22 2C18.686 2 16 4.686 16 8C16 11.314 18.686 14 22 14C25.314 14 28 11.314 28 8C28 4.686 25.314 2 22 2 z M 20.056641 5L23.943359 5L23.943359 6.1582031L21.203125 6.1582031L21.09375 7.5136719L21.171875 7.5136719C21.398875 7.1496719 21.811156 6.9140625 22.410156 6.9140625C23.519156 6.9140625 24.3125 7.737 24.3125 8.875C24.3115 10.138 23.381656 11 21.972656 11C20.616656 11 19.7085 10.203578 19.6875 9.1425781L21.035156 9.1425781C21.104156 9.5715781 21.493422 9.8554687 21.982422 9.8554688C22.524422 9.8554688 22.910156 9.4821094 22.910156 8.9121094C22.910156 8.3291094 22.520516 7.9414062 21.978516 7.9414062C21.565516 7.9414062 21.275844 8.1278281 21.089844 8.4238281L19.78125 8.4238281L20.056641 5 z M 4 10 A 2 2 0 0 0 3.6152344 10.039062C3.6019438 10.041667 3.5893675 10.045961 3.5761719 10.048828 A 2 2 0 0 0 3.2363281 10.154297C3.2257373 10.158695 3.2155766 10.163395 3.2050781 10.167969 A 2 2 0 0 0 2.8886719 10.337891C2.8867353 10.33919 2.8847443 10.340491 2.8828125 10.341797 A 2 2 0 0 0 2.8730469 10.349609 A 2 2 0 0 0 2.5917969 10.580078C2.5858822 10.585945 2.5820134 10.59367 2.5761719 10.599609 A 2 2 0 0 0 2.34375 10.880859C2.3419257 10.88355 2.3397021 10.885972 2.3378906 10.888672 A 2 2 0 0 0 2.1582031 11.220703C2.1579773 11.221235 2.1584285 11.222124 2.1582031 11.222656 A 2 2 0 0 0 2.0410156 11.597656 A 2 2 0 0 0 2 12L2 24 A 2 2 0 0 0 2.0390625 24.384766C2.0416671 24.398056 2.0459609 24.410633 2.0488281 24.423828 A 2 2 0 0 0 2.1542969 24.763672C2.1586949 24.774263 2.1633947 24.784423 2.1679688 24.794922 A 2 2 0 0 0 2.3378906 25.111328C2.341519 25.116735 2.3459298 25.121583 2.3496094 25.126953 A 2 2 0 0 0 2.5800781 25.408203C2.5859447 25.414118 2.59367 25.417987 2.5996094 25.423828 A 2 2 0 0 0 2.8808594 25.65625C2.8835496 25.658074 2.8859723 25.660298 2.8886719 25.662109 A 2 2 0 0 0 3.2207031 25.841797C3.221235 25.842023 3.2221242 25.841571 3.2226562 25.841797 A 2 2 0 0 0 3.5976562 25.958984 A 2 2 0 0 0 4 26L26 26 A 2 2 0 0 0 26.384766 25.960938C26.398056 25.958333 26.410633 25.954039 26.423828 25.951172 A 2 2 0 0 0 26.763672 25.845703C26.774263 25.841305 26.784423 25.836605 26.794922 25.832031 A 2 2 0 0 0 27.111328 25.662109 A 2 2 0 0 0 27.117188 25.658203C27.12065 25.655862 27.123506 25.652752 27.126953 25.650391 A 2 2 0 0 0 27.408203 25.419922 A 2 2 0 0 0 27.414062 25.414062C27.418011 25.410114 27.419913 25.404371 27.423828 25.400391 A 2 2 0 0 0 27.65625 25.119141 A 2 2 0 0 0 27.658203 25.117188C27.659509 25.115256 27.66081 25.113265 27.662109 25.111328 A 2 2 0 0 0 27.841797 24.779297 A 2 2 0 0 0 27.841797 24.777344 A 2 2 0 0 0 27.958984 24.402344 A 2 2 0 0 0 28 24L28 13.279297C27.428 13.929297 26.754 14.484875 26 14.921875L25.998047 22 A 2 2 0 0 0 24 24L6 24 A 2 2 0 0 0 4 22L4 14 A 2 2 0 0 0 6 12L15.078125 12C14.719125 11.381 14.444719 10.71 14.261719 10L4 10 z M 15 14C12.791 14 11 16.015 11 18.5C11 19.922 11.597672 21.175 12.513672 22L17.486328 22C18.402328 21.175 19 19.922 19 18.5C19 16.015 17.209 14 15 14 z M 7 17 A 1 1 0 0 0 6 18 A 1 1 0 0 0 7 19 A 1 1 0 0 0 8 18 A 1 1 0 0 0 7 17 z M 23 17 A 1 1 0 0 0 22 18 A 1 1 0 0 0 23 19 A 1 1 0 0 0 24 18 A 1 1 0 0 0 23 17 z" />
</svg>