<svg xmlns="http://www.w3.org/2000/svg" viewBox="0 0 26 26">
  <path d="M1 6C0.449219 6 0 6.449219 0 7L0 22C0 22.550781 0.449219 23 1 23L3 23C3.246094 21.277344 4.710938 19.9375 6.5 19.9375C8.289063 19.9375 9.753906 21.277344 10 23L17 23C17.246094 21.277344 18.710938 19.9375 20.5 19.9375C22.289063 19.9375 23.753906 21.277344 24 23L25 23C25.550781 23 26 22.550781 26 22L26 17C26 16.054688 25.21875 14.96875 25.21875 14.96875L23 11C22.542969 10.449219 22.234375 10 21.5 10L18 10L18 7C18 6.449219 17.550781 6 17 6 Z M 1.96875 11.90625L5.03125 11.90625L5.03125 12.78125L2.84375 12.78125L2.84375 14.03125L4.75 14.03125L4.75 14.875L2.84375 14.875L2.84375 17.0625L1.96875 17.0625 Z M 5.96875 11.90625L7.9375 11.90625C8.398438 11.90625 8.765625 12.03125 9.03125 12.28125C9.304688 12.539063 9.4375 12.90625 9.4375 13.34375C9.4375 13.664063 9.355469 13.945313 9.21875 14.1875C9.132813 14.339844 9.023438 14.46875 8.875 14.5625C8.886719 14.570313 8.894531 14.585938 8.90625 14.59375C9.003906 14.671875 9.097656 14.738281 9.15625 14.84375C9.210938 14.941406 9.253906 15.0625 9.28125 15.1875C9.304688 15.300781 9.300781 15.441406 9.3125 15.5625C9.320313 15.6875 9.339844 15.785156 9.34375 15.90625C9.347656 16.023438 9.359375 16.140625 9.375 16.25C9.390625 16.355469 9.40625 16.460938 9.4375 16.5625C9.464844 16.648438 9.511719 16.746094 9.5625 16.8125L9.75 17.0625L8.71875 17.0625L8.6875 17C8.628906 16.929688 8.582031 16.832031 8.5625 16.71875C8.546875 16.625 8.535156 16.519531 8.53125 16.40625L8.53125 16.0625C8.527344 15.945313 8.488281 15.855469 8.46875 15.75C8.453125 15.632813 8.429688 15.507813 8.40625 15.40625C8.386719 15.320313 8.355469 15.253906 8.3125 15.1875C8.273438 15.128906 8.222656 15.097656 8.15625 15.0625C8.089844 15.027344 7.996094 15 7.875 15L6.84375 15L6.84375 17.0625L5.96875 17.0625 Z M 10 11.90625L13.03125 11.90625L13.03125 12.78125L10.875 12.78125L10.875 14.03125L12.84375 14.03125L12.84375 14.875L10.875 14.875L10.875 16.21875L13.03125 16.21875L13.03125 17.0625L10 17.0625 Z M 14 11.90625L17.0625 11.90625L17.0625 12.78125L14.875 12.78125L14.875 14.03125L16.875 14.03125L16.875 14.875L14.875 14.875L14.875 16.21875L17.0625 16.21875L17.0625 17.0625L14 17.0625 Z M 19 12L21.4375 12C21.597656 12 21.84375 12.25 21.84375 12.25L23.9375 16.15625C24.125 16.429688 24.3125 16.75 24.3125 17L19 17 Z M 6.84375 12.78125L6.84375 14.15625L7.65625 14.15625C7.789063 14.15625 7.917969 14.144531 8.03125 14.125C8.136719 14.105469 8.238281 14.054688 8.3125 14C8.386719 13.945313 8.453125 13.871094 8.5 13.78125C8.542969 13.695313 8.5625 13.585938 8.5625 13.4375C8.5625 13.230469 8.507813 13.0625 8.40625 12.9375C8.308594 12.820313 8.140625 12.78125 7.90625 12.78125 Z M 6.5 21C5.121094 21 4 22.121094 4 23.5C4 24.878906 5.121094 26 6.5 26C7.878906 26 9 24.878906 9 23.5C9 22.121094 7.878906 21 6.5 21 Z M 20.5 21C19.121094 21 18 22.121094 18 23.5C18 24.878906 19.121094 26 20.5 26C21.878906 26 23 24.878906 23 23.5C23 22.121094 21.878906 21 20.5 21Z"/>
</svg>