<svg xmlns="http://www.w3.org/2000/svg" viewBox="0 0 24 24">
  <path d="M12 0.013671875C8.924 0.013671875 5.849125 1.1801719 3.515625 3.5136719C-1.151375 8.1806719 -1.151375 15.817375 3.515625 20.484375C8.182625 25.151375 15.819328 25.151375 20.486328 20.484375C25.153328 15.817375 25.153328 8.1806719 20.486328 3.5136719C18.152828 1.1801719 15.076 0.013671875 12 0.013671875 z M 12 2.0117188C14.56325 2.0117187 17.125813 2.9851875 19.070312 4.9296875C22.959312 8.8186875 22.959312 15.181313 19.070312 19.070312C15.181313 22.959312 8.8186875 22.959312 4.9296875 19.070312C1.0406875 15.181313 1.0406875 8.8186875 4.9296875 4.9296875C6.8741875 2.9851875 9.43675 2.0117188 12 2.0117188 z M 12 4.9296875L10.289062 6.640625L14.652344 11.003906L5 11L5 13L14.652344 12.996094L10.296875 17.353516L12 19.070312L19.070312 12L12 4.9296875 z" fill="#000000" />
</svg>