<svg xmlns="http://www.w3.org/2000/svg" viewBox="0 0 64 64">
  <path d="M32 1C25.699219 1 20.597656 5.898438 20.097656 12L9.898438 12C8.300781 12 7 13.199219 6.898438 14.800781L4.199219 52.800781C4.097656 53.601563 4.398438 54.398438 5 55C5.601563 55.601563 6.398438 56 7.199219 56L56.902344 56C57.699219 56 58.5 55.699219 59.097656 55C59.699219 54.300781 60 53.597656 59.902344 52.699219L57.097656 14.800781C57 13.199219 55.699219 12 54.097656 12L43.902344 12C43.402344 5.898438 38.300781 1 32 1 Z M 32 3C37.199219 3 41.402344 7 41.902344 12L22.097656 12C22.597656 7 26.800781 3 32 3 Z M 9.898438 14L54.199219 14C54.699219 14 55.199219 14.402344 55.199219 14.902344L57.902344 52.902344C57.902344 53.199219 57.800781 53.5 57.597656 53.699219C57.398438 53.898438 57.101563 54 56.902344 54L7.101563 54C6.800781 54 6.601563 53.898438 6.398438 53.699219C6.199219 53.5 6.101563 53.199219 6.101563 52.902344L8.601563 18L43 18C43.601563 18 44 17.601563 44 17C44 16.398438 43.601563 16 43 16L8.800781 16L8.898438 14.902344C8.898438 14.402344 9.398438 14 9.898438 14 Z M 47 16C46.398438 16 46 16.398438 46 17C46 17.601563 46.398438 18 47 18L51 18C51.601563 18 52 17.601563 52 17C52 16.398438 51.601563 16 51 16 Z M 21 20C19.300781 20 18 21.300781 18 23C18 24.300781 18.898438 25.402344 20 25.800781C20.5 32.101563 25.699219 37 32 37C38.300781 37 43.5 32.101563 44 25.800781C45.199219 25.402344 46 24.300781 46 23C46 21.300781 44.699219 20 43 20C41.300781 20 40 21.300781 40 23C40 24.300781 40.800781 25.402344 42 25.800781C41.601563 30.902344 37.300781 35 32 35C26.699219 35 22.5 30.902344 22 25.800781C23.101563 25.402344 24 24.300781 24 23C24 21.300781 22.699219 20 21 20 Z M 43 21.597656C43.800781 21.597656 44.402344 22.199219 44.402344 23C44.402344 23.800781 43.800781 24.402344 43 24.402344C42.199219 24.402344 41.597656 23.800781 41.597656 23C41.597656 22.199219 42.199219 21.597656 43 21.597656 Z M 21 21.699219C21.699219 21.699219 22.300781 22.300781 22.300781 23C22.300781 23.699219 21.699219 24.300781 21 24.300781C20.300781 24.300781 19.699219 23.699219 19.699219 23C19.699219 22.300781 20.300781 21.699219 21 21.699219 Z M 9 48C8.398438 48 8 48.398438 8 49L8 51C8 51.601563 8.398438 52 9 52C9.601563 52 10 51.601563 10 51L10 49C10 48.398438 9.601563 48 9 48 Z M 14 48C13.398438 48 13 48.398438 13 49L13 51C13 51.601563 13.398438 52 14 52C14.601563 52 15 51.601563 15 51L15 49C15 48.398438 14.601563 48 14 48 Z M 19 48C18.398438 48 18 48.398438 18 49L18 51C18 51.601563 18.398438 52 19 52C19.601563 52 20 51.601563 20 51L20 49C20 48.398438 19.601563 48 19 48 Z M 24 48C23.398438 48 23 48.398438 23 49L23 51C23 51.601563 23.398438 52 24 52C24.601563 52 25 51.601563 25 51L25 49C25 48.398438 24.601563 48 24 48 Z M 29 48C28.398438 48 28 48.398438 28 49L28 51C28 51.601563 28.398438 52 29 52C29.601563 52 30 51.601563 30 51L30 49C30 48.398438 29.601563 48 29 48 Z M 35 48C34.398438 48 34 48.398438 34 49L34 51C34 51.601563 34.398438 52 35 52C35.601563 52 36 51.601563 36 51L36 49C36 48.398438 35.601563 48 35 48 Z M 40 48C39.398438 48 39 48.398438 39 49L39 51C39 51.601563 39.398438 52 40 52C40.601563 52 41 51.601563 41 51L41 49C41 48.398438 40.601563 48 40 48 Z M 45 48C44.398438 48 44 48.398438 44 49L44 51C44 51.601563 44.398438 52 45 52C45.601563 52 46 51.601563 46 51L46 49C46 48.398438 45.601563 48 45 48 Z M 50 48C49.398438 48 49 48.398438 49 49L49 51C49 51.601563 49.398438 52 50 52C50.601563 52 51 51.601563 51 51L51 49C51 48.398438 50.601563 48 50 48 Z M 55 48C54.398438 48 54 48.398438 54 49L54 51C54 51.601563 54.398438 52 55 52C55.601563 52 56 51.601563 56 51L56 49C56 48.398438 55.601563 48 55 48Z" />
</svg>